<svg xmlns="http://www.w3.org/2000/svg" viewBox="0 0 200 200">
  <circle cx="100" cy="106" r="72" fill="#F7B7A3"/>
  <path d="M48 54 L64 22 L80 60 Z" fill="#F7B7A3"/><path d="M152 54 L136 22 L120 60 Z" fill="#F7B7A3"/><path d="M50 56 L64 32 L76 58 Z" fill="#FFE3D9"/><path d="M150 56 L136 32 L124 58 Z" fill="#FFE3D9"/><path d="M40 108 Q20 108 24 100" stroke="#2D3436" stroke-width="3" fill="none" stroke-linecap="round"/><path d="M40 118 Q18 122 22 128" stroke="#2D3436" stroke-width="3" fill="none" stroke-linecap="round"/><path d="M160 108 Q180 108 176 100" stroke="#2D3436" stroke-width="3" fill="none" stroke-linecap="round"/><path d="M160 118 Q182 122 178 128" stroke="#2D3436" stroke-width="3" fill="none" stroke-linecap="round"/>
  <ellipse cx="62" cy="118" rx="14" ry="9" fill="#FF9AA2" opacity="0.55"/><ellipse cx="138" cy="118" rx="14" ry="9" fill="#FF9AA2" opacity="0.55"/>
  <circle cx="76" cy="96" r="9" fill="#2D3436"/>
  <circle cx="124" cy="96" r="9" fill="#2D3436"/>
  <circle cx="79" cy="93" r="3" fill="#FFFFFF"/>
  <circle cx="127" cy="93" r="3" fill="#FFFFFF"/>
  <path d="M88 128 Q100 138 112 128" stroke="#2D3436" stroke-width="4" fill="none" stroke-linecap="round"/>
</svg>
